<?xml version="1.0" encoding="utf-8"?>
<!-- Generator: Adobe Illustrator 21.1.0, SVG Export Plug-In . SVG Version: 6.00 Build 0)  -->
<svg version="1.1" id="Layer_1" xmlns="http://www.w3.org/2000/svg" xmlns:xlink="http://www.w3.org/1999/xlink" x="0px" y="0px"
	 viewBox="0 0 400 400" style="enable-background:new 0 0 400 400;" xml:space="preserve">
<style type="text/css">
	.st0{fill:#2674FF;}
	.st1{fill-rule:evenodd;clip-rule:evenodd;fill:#FFFFFF;}
	.st2{fill-rule:evenodd;clip-rule:evenodd;fill:#E0E5F3;}
	.st3{fill-rule:evenodd;clip-rule:evenodd;fill:#F05856;}
	.st4{fill-rule:evenodd;clip-rule:evenodd;fill:#FFDCB7;}
	.st5{fill-rule:evenodd;clip-rule:evenodd;fill:#E6C49F;}
	.st6{fill-rule:evenodd;clip-rule:evenodd;fill:#EFCDAA;}
	.st7{fill-rule:evenodd;clip-rule:evenodd;fill:#7D5F54;}
	.st8{fill-rule:evenodd;clip-rule:evenodd;fill:#F5D4B1;}
	.st9{fill-rule:evenodd;clip-rule:evenodd;fill:#22455C;}
	.st10{fill-rule:evenodd;clip-rule:evenodd;fill:#D0D7ED;}
	.st11{fill-rule:evenodd;clip-rule:evenodd;fill:#DA4D4B;}
	.st12{fill:#2E5B78;}
	.st13{fill-rule:evenodd;clip-rule:evenodd;fill:#2E5B78;}
</style>
<rect class="st0" width="400" height="400"/>
<g>
	<path class="st1" d="M125.9,284.5c-21.3,13.8-30.1,43.5-42.6,78.7c35,24.4,77.6,38.8,123.5,38.8c45.9,0,102.5,24.2,137.5-0.1
		c-12.5-35.4-35.3-103.9-56.8-117.4c-36.9-23.1-59.1-28.6-80.9-28.9C184.4,255.3,162.6,260.8,125.9,284.5z"/>
	<path class="st2" d="M125.9,284.5c-21.3,13.8-45.8,82.3-58.3,117.5c35,24.4,93.2,0,139.2,0h0.1V255.6l-0.3,0
		C184.4,255.3,162.6,260.8,125.9,284.5z"/>
	<rect x="166.7" y="257.6" class="st3" width="87.1" height="96.7"/>
	<path class="st4" d="M176.2,167.1h61.1v88.4c0,29.8-61.1,33.3-61.1,0V167.1z"/>
	<polygon class="st5" points="237.3,229.9 237.3,218.6 176.2,218.6 176.2,260.2 	"/>
	<path class="st6" d="M206.7,62c129.4,0,76.9,170.9,0,170.9S77.3,62,206.7,62z"/>
	<path class="st4" d="M206.7,62c129.4,0,76.9,170.9,0,170.9V62z"/>
	<path class="st7" d="M242.8,79.2c20.9,8.9,29.5,35.8,34.3,53.9c7,26.3,3.1,24,12.5,4C299,117,276,30.6,208.9,30.6
		c-67.1,0-94.6,66.5-85.2,102.8c9.4,36.3,9.4,27.7,15.3,0.1C154,62.7,207.1,93.7,242.8,79.2z"/>
	<g>
		
			<ellipse transform="matrix(0.2172 -0.9761 0.9761 0.2172 86.2359 388.7285)" class="st4" cx="285.5" cy="140.6" rx="20.2" ry="8.7"/>
		
			<ellipse transform="matrix(0.9761 -0.2172 0.2172 0.9761 -27.4792 31.1629)" class="st8" cx="128" cy="140.6" rx="8.7" ry="20.2"/>
	</g>
	<path class="st9" d="M200,309.4l-6.6,92.1c4.4,0.3,8.8,0.4,13.3,0.4c4.4,0,8.8-0.1,13.1-0.4l-6.6-92.2l21.6-51.7
		c-20.2-0.4-36.4-0.3-56.5,0L200,309.4z"/>
	<g>
		<path class="st10" d="M192.7,401.6c-13.6-25.3-34.9-51.6-55.3-48.8c-4.4-15.6-0.6-27.6,6-41.6c-8-1.4-14.2-3.7-24.2,1.5
			c13.9-29.5,28.5-51.8,53-60.1c0,14.5-1.4,42.3,12,61c9.4,13.1,16.8,54.2,20.3,88.4C200.5,402,196.6,401.8,192.7,401.6z"/>
		<path class="st2" d="M197.3,401.8c-12.8-26.9-36.3-59.8-55.2-59.8c0.4-16.5,1.8-24.4,10.7-36.8c-12.3-2.1-24.6-0.2-34.6,5
			c8-20.7,35.1-49.3,54-57.6c0,14.5-1.4,42.3,12,61c10.1,14.1,17.8,56.1,21,88.4C202.5,402,199.9,401.9,197.3,401.8z"/>
		<path class="st2" d="M220.9,401.6c13.6-25.3,34.9-51.6,55.3-48.8c4.4-15.6,0.6-27.6-6-41.6c8-1.4,15.4-2.9,25.4,2.3
			c-9.9-17.7-29.8-52.6-54.3-60.8c0,14.5,11.8,44.6-9.8,61.6c-15.3,12.1-25.7,53.1-27.3,87.8c0.9,0,1.7,0,2.6,0
			C211.5,402,216.2,401.9,220.9,401.6z"/>
		<path class="st1" d="M216.2,401.8c12.8-26.9,36.3-59.8,55.2-59.8c-0.4-16.5-1.8-24.4-10.7-36.8c12.3-2.1,25.1,0.3,35.1,5.5
			c-10.9-19.7-35.6-49.8-54.5-58.1c0,14.5,2.3,44.1-12,61c-10.9,12.9-19.2,55-21.8,88.4C210.4,402,213.3,401.9,216.2,401.8z"/>
	</g>
	<polygon class="st11" points="176.1,239.3 156.8,258.4 153.3,296.5 205.9,257.6 	"/>
	<polygon class="st3" points="237.2,239.3 256.4,258.4 259.9,296.5 207.3,257.6 	"/>
	<path class="st12" d="M270.7,322c-0.2,2.3,1.5,4.3,3.7,4.5c2.3,0.2,4.3-1.5,4.5-3.7c1.5-15.9-3.7-36.4-11.4-53.8
		c-8.5-19.3-20.5-35.1-30.2-37.4l0,0v8.8c6.9,3.4,15.7,16.3,22.6,32C267.1,288.7,272,307.6,270.7,322z"/>
	<path class="st12" d="M141.3,281.1c1.4-4.1,3-8.2,4.8-12.1c8.5-19.2,20.4-34.9,30.1-37.4v8.8c-6.9,3.5-15.6,16.4-22.5,31.9
		c-1.3,2.8-2.4,5.8-3.5,8.7H141.3z"/>
	<path class="st13" d="M271.5,341.3c7,0,12.6-5.7,12.6-12.6c0-7-5.7-12.6-12.6-12.6c-7,0-12.6,5.7-12.6,12.6
		C258.8,335.6,264.5,341.3,271.5,341.3z"/>
	<path class="st9" d="M271.5,336.8c4.5,0,8.2-3.7,8.2-8.2c0-4.5-3.7-8.2-8.2-8.2c-4.5,0-8.2,3.7-8.2,8.2
		C263.3,333.2,267,336.8,271.5,336.8z"/>
	<g>
		<g>
			<path class="st12" d="M131.3,301c-0.9,7.6-2.5,23.8-0.4,38.6c2,14.2,7.6,27,21,28.6l-0.4,3.4c-15.4-1.8-21.8-15.9-24-31.5
				c-2.2-15.2-0.5-31.8,0.4-39.5L131.3,301z"/>
			<path class="st9" d="M154.3,366.6l4.7,0.5c1.7,0.2,3,1.8,2.8,3.5v0c-0.2,1.7-1.8,3-3.5,2.8l-4.7-0.5c-1.7-0.2-3-1.8-2.8-3.5v0
				C151,367.7,152.6,366.4,154.3,366.6z"/>
		</g>
		<g>
			<path class="st12" d="M154.2,303.6c-0.9,7.6-3,23.8-8.4,37.7c-5.2,13.4-13.6,24.6-26.9,23.1l-0.4,3.4
				c15.4,1.8,24.8-10.5,30.6-25.2c5.6-14.3,7.7-30.8,8.6-38.5L154.2,303.6z"/>
			<path class="st9" d="M117,362.6l-4.7-0.5c-1.7-0.2-3.3,1.1-3.5,2.8l0,0c-0.2,1.7,1.1,3.3,2.8,3.5l4.7,0.5
				c1.7,0.2,3.3-1.1,3.5-2.8v0C120,364.4,118.8,362.8,117,362.6z"/>
		</g>
		<path class="st12" d="M131.3,319.3c-0.2,2.1-2.2,3.7-4.3,3.4c-2.1-0.2-3.7-2.2-3.4-4.3l3.5-30.4c0.5-4.7,2.9-8.7,6.4-11.4
			c3.4-2.7,7.9-4.1,12.6-3.6c4.7,0.5,8.7,2.9,11.4,6.4c2.7,3.4,4.1,7.9,3.6,12.6l-3.5,30.4c-0.2,2.1-2.2,3.7-4.3,3.4
			c-2.1-0.2-3.7-2.2-3.4-4.3l3.5-30.4c0.3-2.5-0.5-5-2-6.9c-1.5-1.9-3.7-3.2-6.2-3.5c-2.5-0.3-5,0.5-6.9,2c-1.9,1.5-3.2,3.7-3.5,6.2
			L131.3,319.3z"/>
	</g>
</g>
</svg>
